<svg width="291" height="70" viewBox="0 0 291 70" fill="none" xmlns="http://www.w3.org/2000/svg">
<g clip-path="url(#clip0_4_25)">
<rect width="290.548" height="70" fill="#D9EDDF"/>
<path d="M63.7649 18.7093L67.5305 20.0098C68.2837 20.2151 68.6717 20.4661 68.6717 20.7855C68.6717 21.0365 68.4206 21.1962 67.8957 21.3331C66.709 21.5841 66.1156 21.8579 66.1156 22.1773C65.7276 24.3677 65.294 26.2386 64.8604 27.7901H70.5202V20.1011C70.5202 17.751 70.3605 16.131 70.041 15.2184L74.149 15.9257C74.9706 16.0398 75.4042 16.2679 75.4042 16.5874C75.4042 16.9524 74.9477 17.2034 74.0348 17.3631C73.2361 17.5913 72.8481 17.9107 72.8481 18.2529V27.7901H75.1759L76.066 26.6037C76.705 25.691 77.1843 25.2347 77.5038 25.2347C77.7777 25.2347 78.371 25.6682 79.2839 26.558C80.425 27.6304 81.0184 28.2921 81.0184 28.5202C81.0184 29.1134 80.6989 29.41 80.0599 29.41H72.8481V42.8716C75.1531 41.8677 77.7092 40.6584 80.5391 39.1754L81.0184 39.8827C77.9602 41.7992 75.2444 43.3735 72.8481 44.6512V66.646C72.8481 67.2849 72.4601 67.7184 71.6613 67.9466C71.3418 68.015 71.1136 68.0606 70.9995 68.0606C70.5202 68.0606 70.292 67.6728 70.292 66.8742C70.292 63.5887 70.3605 60.1434 70.5202 56.5613V45.9061C68.9227 46.7047 67.5305 47.3436 66.2982 47.8227C63.9931 48.7353 62.852 49.4426 62.852 49.899C62.852 50.8116 62.6923 51.2679 62.3728 51.2679C61.9848 51.2679 61.574 50.8344 61.186 49.9674C60.5926 48.781 60.1362 47.8227 59.8167 47.1154C61.8935 46.8416 64.2442 46.2256 66.9144 45.2673C68.0326 44.9022 69.2422 44.4459 70.5431 43.8983V29.41H64.4039C64.1529 30.2542 63.879 30.9615 63.5595 31.5548C62.4412 33.9276 61.0263 36.0267 59.3374 37.8064L58.9266 37.0991C59.9536 35.3879 60.8209 33.6539 61.4827 31.8514C62.0304 30.2542 62.4869 28.543 62.852 26.7177C63.1715 25.0522 63.491 22.3827 63.8105 18.7321L63.7649 18.7093ZM88.2074 14.9674C89.8277 15.5606 91.334 16.131 92.6805 16.7014C93.2739 16.9524 93.5705 17.2262 93.5705 17.5456C93.5705 17.7738 93.1826 18.002 92.3838 18.2073C91.1514 18.4127 90.3755 18.8005 90.0559 19.3938C89.0518 21.9035 88.0704 24.0939 87.0891 25.942H107.538C108.017 25.5085 108.405 25.0522 108.724 24.573C109.09 24.208 109.386 24.0254 109.614 24.0254C109.98 24.0254 110.641 24.4133 111.646 25.2119C112.65 26.0789 113.129 26.6949 113.129 27.06C113.129 27.2881 112.787 27.5619 112.125 27.8357C111.417 28.2008 111.052 28.4974 111.052 28.7256C110.801 33.5398 110.436 39.0613 109.911 45.2901C109.523 50.5378 108.861 54.9642 107.948 58.5691C107.127 62.311 105.826 64.7295 104.069 65.8475C102.562 66.8514 101.467 67.3305 100.782 67.3305C100.417 67.3305 100.098 66.897 99.7782 66.0072C99.4586 64.7751 97.0851 63.4974 92.6348 62.1969V61.2386C96.2636 62.3566 99.2761 62.9042 101.695 62.9042C102.813 62.9042 103.681 62.3566 104.32 61.2386C105.278 59.208 106.168 54.736 107.013 47.8227C107.857 41.5482 108.268 34.7718 108.268 27.4935H104.046C101.421 37.1904 98.4773 44.4459 95.2137 49.2373C91.2427 54.7588 86.1077 59.3905 79.8316 63.1095L79.1698 62.4022C84.9438 58.7516 89.5995 54.2112 93.1826 48.8266C96.1951 44.1037 98.9109 36.985 101.284 27.4935H94.8486C92.5892 34.0417 90.307 38.7647 88.002 41.6167C85.811 44.9935 82.479 48.279 77.9831 51.4505L77.5038 50.7888C81.4064 47.6858 84.3048 44.4915 86.199 41.206C88.1845 38.3768 90.1472 33.8136 92.1099 27.4935H86.199C85.6513 28.4974 85.1036 29.3644 84.5786 30.1173C82.3421 33.1747 79.9914 35.7301 77.481 37.7379L77.0017 37.0306C79.9458 33.8592 82.228 30.5965 83.8483 27.2653C85.2405 24.573 86.6783 20.4433 88.2074 14.9218V14.9674Z" fill="#231815" stroke="#231815" stroke-width="0.25" stroke-miterlimit="10"/>
<path d="M119.611 26.1702C120.957 26.444 122.988 26.5808 125.681 26.5808H136.59C137.069 26.1017 137.48 25.5998 137.845 25.0978C138.325 24.5502 138.69 24.2536 138.918 24.2536C139.238 24.2536 139.854 24.6871 140.767 25.5541C141.885 26.5124 142.433 27.0828 142.433 27.2881C142.433 27.927 142.045 28.2464 141.246 28.2464H125.681C123.171 28.2464 121.459 28.4061 120.569 28.7256L119.611 26.1702ZM122.189 33.8592C123.536 34.133 125.567 34.2699 128.26 34.2699H134.993C135.381 33.882 135.769 33.4257 136.134 32.9009C136.522 32.4218 136.841 32.1936 137.092 32.1936C137.366 32.1936 137.937 32.5815 138.827 33.3801C139.854 34.2927 140.379 34.8403 140.379 35C140.379 35.6389 140.059 35.9583 139.42 35.9583H128.283C125.773 35.9583 124.061 36.0952 123.148 36.369L122.189 33.8592ZM122.189 41.4798C123.536 41.7992 125.567 41.9589 128.26 41.9589H134.993C135.381 41.5254 135.769 41.0691 136.134 40.59C136.522 40.1108 136.841 39.8827 137.092 39.8827C137.366 39.8827 137.937 40.2705 138.827 41.0691C139.854 41.9818 140.379 42.5293 140.379 42.6891C140.379 43.3279 140.059 43.6473 139.42 43.6473H128.283C125.773 43.6473 124.061 43.7842 123.148 44.058L122.189 41.5026V41.4798ZM122.897 48.028C123.97 48.3931 124.951 48.9179 125.818 49.648H135.472C135.472 49.648 135.769 49.4426 136.248 48.9863C136.773 48.5072 137.115 48.279 137.32 48.279C137.594 48.279 138.211 48.7125 139.169 49.6024C139.968 50.3553 140.356 50.8573 140.356 51.0854C140.356 51.2451 139.945 51.5417 139.101 51.9752C138.553 52.3631 138.256 52.6825 138.256 52.9335C138.256 57.7477 138.325 62.311 138.507 66.646C138.507 66.9198 138.256 67.1708 137.731 67.3533C137.366 67.4674 137.161 67.5587 137.069 67.5815C136.316 67.5815 135.928 67.2621 135.928 66.6232V63.8168H125.681L125.932 66.8514C125.932 67.2849 125.544 67.6043 124.791 67.8097C124.358 67.9694 124.038 68.0378 123.833 68.0378C123.353 68.0378 123.125 67.6499 123.125 66.8514L123.353 63.8168V53.3898C123.353 51.4505 123.194 49.648 122.874 48.028H122.897ZM125.704 62.2197H135.951V51.2451H125.704V62.2197ZM126.822 16.382C129.082 18.0476 130.725 19.5078 131.775 20.7399C132.688 21.8807 133.144 22.839 133.144 23.5919C133.144 24.3449 133.053 24.9153 132.847 25.326C132.482 25.7138 132.117 25.9192 131.706 25.9192C131.067 25.8735 130.611 25.4857 130.337 24.7327C129.744 22.8618 129.196 21.5157 128.717 20.6715C128.237 19.7132 127.393 18.5039 126.16 17.0437L126.822 16.382ZM142.935 18.9602C144.281 19.234 146.29 19.3709 148.96 19.3709H165.529C165.962 18.8918 166.373 18.3898 166.784 17.8194C167.217 17.2947 167.583 17.0437 167.856 17.0437C168.13 17.0437 168.746 17.4772 169.705 18.367C170.778 19.3253 171.325 19.8957 171.325 20.1011C171.325 20.7399 170.96 21.0593 170.184 21.0593H155.761L154.026 28.7484H162.721C162.881 28.7484 163.155 28.4518 163.566 27.8586C164.045 27.3338 164.296 27.0828 164.342 27.0828C164.821 27.0828 165.483 27.425 166.373 28.0867C167.354 28.9309 167.856 29.5241 167.856 29.8892C167.856 30.0945 167.354 30.414 166.373 30.8475C165.985 31.1213 165.78 31.5091 165.78 31.9883V41.1147H167.4C167.788 40.59 168.176 40.088 168.541 39.5632C168.929 39.0385 169.249 38.7875 169.5 38.7875C169.773 38.7875 170.39 39.1982 171.348 40.0424C172.466 41.0007 173.014 41.5711 173.014 41.7764C173.014 42.4153 172.695 42.7347 172.056 42.7347H147.134C144.669 42.7347 142.958 42.8944 141.999 43.2138L141.109 40.6584C142.455 40.9778 144.464 41.1376 147.134 41.1376H148.686L151.128 30.414H148.572C146.632 30.414 145.217 30.5737 144.35 30.8931L143.46 28.3377C145.08 28.6571 146.792 28.8168 148.595 28.8168H151.516L153.25 21.1278H149.028C146.563 21.1278 144.852 21.2647 143.916 21.5385L143.026 19.0287L142.935 18.9602ZM145.719 46.8416C146.906 47.2751 147.978 47.914 148.937 48.7582H164.547C164.547 48.7582 164.89 48.4844 165.323 47.914C165.848 47.3664 166.19 47.0926 166.396 47.0926C166.715 47.0926 167.354 47.5489 168.313 48.4616C169.066 49.2145 169.454 49.6936 169.454 49.899C169.454 50.1043 169.066 50.4237 168.267 50.8573C167.674 51.2223 167.377 51.5189 167.377 51.7471C167.377 57.0632 167.446 62.1056 167.628 66.8742C167.628 67.148 167.377 67.399 166.852 67.5815C166.487 67.6956 166.282 67.7868 166.19 67.8325C165.437 67.8325 165.049 67.5131 165.049 66.8742V63.8396H149.005L149.188 66.646C149.188 67.1252 148.8 67.4446 148.001 67.6043C147.476 67.764 147.111 67.8553 146.86 67.8553C146.426 67.8553 146.198 67.4674 146.198 66.6689L146.381 63.2008V52.7054C146.381 50.6063 146.153 48.6441 145.719 46.8644V46.8416ZM148.937 62.2197H165.026V50.3553H148.937V62.2197ZM151.196 41.0691H163.178V30.3455H153.638L151.196 41.0691Z" fill="#231815" stroke="#231815" stroke-width="0.25" stroke-miterlimit="10"/>
<path d="M227.673 19.3709C227.947 19.3709 228.609 19.8501 229.636 20.8084C230.959 21.972 231.599 22.6565 231.599 22.8846C231.599 23.5235 231.279 23.8429 230.64 23.8429H186.89V31.9426C186.89 42.6206 186.319 49.899 185.156 53.7549C184.129 58.4094 182.143 62.927 179.199 67.3533L178.309 66.8742C180.614 62.5163 182.166 58.0443 182.965 53.5267C183.878 49.6708 184.334 42.4837 184.334 31.9426C184.334 27.3794 184.106 23.341 183.626 19.8501C184.973 20.603 186.16 21.3788 187.21 22.1773H224.889L225.961 20.9224C226.715 19.8957 227.285 19.3709 227.696 19.3709H227.673ZM226.966 30.5737C223.383 31.6004 220.324 32.3305 217.791 32.7184C217.586 32.764 217.403 32.7868 217.198 32.8325V42.6663H223.451L224.592 41.3429C225.345 40.3618 225.893 39.8599 226.258 39.8599C226.532 39.8599 227.217 40.339 228.289 41.2973C229.59 42.4381 230.252 43.1454 230.252 43.3736C230.252 43.9668 229.933 44.2634 229.293 44.2634H217.198V55.238H223.451C223.885 54.7588 224.273 54.234 224.592 53.6865C225.026 53.1617 225.368 52.9107 225.596 52.9107C225.87 52.9107 226.464 53.3214 227.376 54.1656C228.495 55.1695 229.042 55.7627 229.042 55.9453C229.042 56.5385 228.746 56.8351 228.152 56.8351H210.693C208.183 56.8351 206.471 56.9948 205.559 57.3142L204.6 54.7588C205.946 55.0782 207.978 55.238 210.693 55.238H214.619V44.2634H203.162C202.888 44.3775 202.751 44.5372 202.751 44.7425C200.994 50.4922 199.168 54.8273 197.274 57.7249C198.986 59.4818 201.2 60.8735 203.961 61.9003C207.065 63.178 212.245 63.8168 219.526 63.8168C224.136 63.8168 228.654 63.5887 233.059 63.1552V63.8168C231.439 64.3644 230.503 65.0945 230.252 65.9616C230.252 66.3951 229.773 66.6232 228.814 66.6232C218.59 66.6232 211.857 66.1669 208.548 65.2543C205.33 64.7067 202.432 63.5887 199.853 61.9231C198.415 61.0561 197.251 60.0978 196.338 59.0711C196.224 59.2308 196.11 59.3449 196.042 59.4361C193.828 62.1284 190.154 65.0261 185.064 68.0835L184.585 67.6043C189.606 63.8396 193.098 60.4857 195.083 57.5424C194.809 57.1773 194.535 56.8123 194.307 56.4016C192.869 54.4166 191.591 51.3136 190.427 47.1154L191.318 46.8644C192.459 50.6063 194.011 53.7093 195.905 56.2191C197.89 52.9335 199.397 48.781 200.446 43.8299H194.239L193.874 44.5372C193.759 44.9022 193.143 45.1304 192.025 45.2445C191.546 45.0848 191.318 44.8566 191.318 44.5372C193.075 41.708 194.946 37.6011 196.932 32.1936H195.311C193.006 32.1936 191.066 32.3533 189.469 32.6728L188.1 29.8664C190.838 30.3455 193.257 30.5737 195.311 30.5737H196.453L197.297 29.8664C197.936 29.3872 198.301 29.1363 198.37 29.1363C198.598 29.1363 199.1 29.5241 199.853 30.2771C200.697 31.1441 201.108 31.7145 201.108 31.9426C201.108 32.1708 200.743 32.4902 200.036 32.8325C199.351 33.2204 199.031 33.5626 199.031 33.8364L195.038 42.1871H200.218C200.424 41.9818 200.675 41.7308 200.994 41.4114C201.268 41.1604 201.542 41.0463 201.816 41.0463C202.135 41.0463 202.751 41.4342 203.664 42.1871C203.892 42.3925 204.098 42.5522 204.258 42.6663H214.642V33.2432C211.652 33.6767 207.932 34.0874 203.436 34.4981L203.253 33.6082C206.745 33.2204 210.83 32.4674 215.532 31.3951C219.024 30.5965 222.607 29.3872 226.258 27.7673C227.217 28.3149 228.107 28.9309 228.951 29.6154C229.339 29.8892 229.545 30.2086 229.545 30.5737C229.545 30.6193 229.385 30.6878 229.065 30.8018C228.358 30.7334 227.65 30.6421 226.988 30.5737H226.966Z" fill="#0A2011" stroke="#231815" stroke-width="0.25" stroke-miterlimit="10"/>
<path d="M241.64 16.382C242.941 16.8612 244.105 17.5456 245.086 18.4583H284.957C284.957 18.4583 285.276 18.1617 285.801 17.5685C286.394 16.884 286.805 16.5645 287.056 16.5645C287.376 16.5645 288.038 17.1121 289.019 18.1845C289.863 19.0515 290.274 19.6219 290.274 19.8501C290.274 20.0554 289.886 20.3748 289.087 20.8084C288.494 21.1962 288.197 21.5157 288.197 21.6982C288.197 37.6695 288.266 52.7966 288.448 67.1024C288.448 67.3762 288.174 67.6271 287.604 67.8097C287.125 67.9237 286.874 68.015 286.828 68.0378C286.029 68.0378 285.641 67.7184 285.641 67.0795V64.5241H244.995L245.178 67.0795C245.178 67.513 244.767 67.8325 243.922 68.0378C243.398 68.1975 243.055 68.266 242.85 68.266C242.371 68.266 242.142 67.8781 242.142 67.0795L242.371 63.6115V22.1773C242.371 20.0782 242.142 18.1389 241.663 16.4048L241.64 16.382ZM244.904 62.927H285.618V20.0782H244.904V62.927ZM252.846 36.1636C253.919 36.5287 254.9 37.0535 255.767 37.7836H273.523C273.523 37.7836 273.865 37.5782 274.299 37.1219C274.846 36.5971 275.212 36.3462 275.371 36.3462C275.6 36.3462 276.147 36.7569 276.992 37.6011C277.631 38.3084 277.95 38.7647 277.95 38.9244C277.95 39.1297 277.585 39.4035 276.878 39.7458C276.353 40.0652 276.102 40.339 276.102 40.59C276.102 42.8488 276.17 45.0163 276.33 47.0926C276.33 47.3664 276.079 47.6174 275.554 47.7999C275.189 47.914 275.006 48.0052 274.96 48.028C274.321 48.028 274.002 47.7999 274.002 47.3207V46.8416H266.083V48.4615C268.616 49.6252 270.83 50.6975 272.701 51.6786C275.599 49.9674 277.517 48.1421 278.429 46.2027L281.168 48.0509C281.533 48.2106 281.716 48.4387 281.716 48.7582C281.716 48.8266 281.556 48.8951 281.237 48.9407L279.616 48.7582C277.402 50.264 275.326 51.382 273.409 52.0893C276.033 53.5267 277.996 54.8273 279.319 56.0137C280.278 56.972 280.757 57.7934 280.757 58.5235C280.757 59.2764 280.461 59.6643 279.867 59.6643C279.274 59.573 278.795 59.2764 278.429 58.706C275.531 55.2836 271.423 52.2262 266.083 49.5339V59.4361C266.083 60.1434 265.877 60.5998 265.489 60.8051C265.01 61.1245 264.599 61.2842 264.234 61.2842C263.755 61.2842 263.527 60.6682 263.527 59.4361L263.778 52.9335V48.9407C261.838 51.017 259.875 52.6597 257.935 53.8918C254.877 55.9224 251.089 57.839 246.547 59.6643L245.84 58.9342C249.925 57.1773 253.371 55.3748 256.155 53.5039C258.529 51.884 260.834 49.648 263.07 46.8188H255.79L255.858 47.7771C255.858 48.2106 255.493 48.53 254.786 48.7353C254.352 48.8494 254.01 48.9179 253.782 48.9179C253.302 48.9179 253.074 48.53 253.074 47.7771L253.302 44.7425V41.457C253.302 39.5404 253.165 37.7836 252.892 36.1636H252.846ZM250.518 25.2119C251.865 25.5313 253.873 25.691 256.543 25.691H263.458C263.39 23.7745 263.23 22.2458 263.047 21.0365C264.599 21.3559 265.854 21.6069 266.813 21.8123C267.726 21.972 268.182 22.2458 268.182 22.6565C268.182 22.9303 267.749 23.2041 266.881 23.5007C266.197 23.706 265.877 24.0483 265.877 24.5046V25.691H274.755C275.189 25.2119 275.622 24.6871 276.01 24.1395C276.444 23.6147 276.809 23.3638 277.083 23.3638C277.357 23.3638 277.973 23.7745 278.932 24.6187C280.004 25.6226 280.552 26.2158 280.552 26.3983C280.552 26.9915 280.164 27.2881 279.411 27.2881H265.877V32.1708H277.813C278.247 31.6917 278.658 31.1669 279.068 30.6193C279.502 30.0945 279.867 29.8436 280.141 29.8436C280.415 29.8436 281.008 30.2771 281.921 31.1441C283.039 32.1024 283.587 32.6728 283.587 32.8781C283.587 33.517 283.199 33.8364 282.446 33.8364H252.64C250.13 33.8364 248.418 33.9733 247.506 34.2471L246.547 31.6917C247.893 32.0111 249.925 32.1708 252.64 32.1708H263.549V27.2881H256.566C254.101 27.2881 252.389 27.4479 251.431 27.7673L250.541 25.2119H250.518ZM255.63 45.2217H273.979V39.3807H255.562V44.7425L255.63 45.2217Z" fill="#0A2011" stroke="#231815" stroke-width="0.25" stroke-miterlimit="10"/>
<path d="M27.2267 36.0724C23.2785 38.103 26.9985 43.6245 29.76 42.324L44.2748 69.1102L42.6316 70.0228C37.1315 62.1284 23.1872 51.884 12.3011 52.0209L11.0687 38.9016L34.6439 21.1278L48.1546 31.0528C43.0653 39.1754 45.4844 59.4817 47.5612 67.2849L45.918 68.1975L31.0837 41.6395C34.0734 39.7914 31.7455 33.6538 27.2039 36.0952L27.2267 36.0724Z" fill="#040000"/>
<path d="M8.35288 35.251L5.04368 29.2731L31.4717 9.35461L34.8493 15.4693L8.35288 35.251Z" fill="#102C15"/>
<path d="M3.3092 26.1017L0 20.1695L26.2682 0L29.7828 6.34289L3.3092 26.1017Z" fill="#102C15"/>
<path d="M289.201 67.0339H43.6586V68.7907H289.201V67.0339Z" fill="#102C15"/>
<path d="M203.664 9.49154C203.208 10.4954 202.181 11.5906 203.345 14.4883C203.345 14.4883 204.714 18.6408 206.471 19.6219C206.471 19.6219 209.324 22.223 211.72 20.0554C211.72 20.0554 211.971 19.7132 211.971 19.12C212.017 18.9146 211.378 18.1845 211.218 18.0476C211.218 18.0476 210.169 16.4505 209.53 15.9713C208.936 15.515 207.156 13.2334 207.133 12.9368C207.11 12.6402 205.422 9.42309 205.262 9.24056C204.988 8.92113 204.623 8.78423 204.326 8.98958C204.075 9.17211 203.664 9.49154 203.664 9.49154Z" fill="#613B1B"/>
<path d="M211.903 16.9752C211.903 16.9752 212.291 18.4127 213.021 18.4355C213.752 18.4583 214.14 18.0932 214.55 16.9296C214.961 15.766 214.984 13.8494 214.094 12.0241C214.094 12.0241 213.364 10.0619 212.268 8.80706C211.173 7.55217 209.05 6.77642 208.046 6.7536C207.361 6.7536 205.992 6.47981 205.718 8.16821C205.695 8.37355 207.658 10.9974 208.252 11.6819C208.982 12.5261 209.644 13.5072 210.191 14.5795C210.42 15.0131 211.561 16.7699 211.903 16.9981V16.9752Z" fill="#613B1B"/>
</g>
<defs>
<clipPath id="clip0_4_25">
<rect width="290.548" height="70" fill="white"/>
</clipPath>
</defs>
</svg>
